name Walk2.mot
datacolumns 19
datarows 30
range 1.20600000 1.23500000
endheader

                time	   L_ground_force_vx	   L_ground_force_vy	   L_ground_force_vz	   L_ground_force_px	   L_ground_force_py	   L_ground_force_pz	   R_ground_force_vx	   R_ground_force_vy	   R_ground_force_vz	   R_ground_force_px	   R_ground_force_py	   R_ground_force_pz	   L_ground_torque_x	   L_ground_torque_y	   L_ground_torque_z	   R_ground_torque_x	   R_ground_torque_y	   R_ground_torque_z	
          1.20600000	        -10.82938991	        149.48694345	        -17.46930539	         -0.01083755	          0.00000000	         -0.00480401	          0.00000000	          0.00000000	          0.00000000	          0.00000000	          0.00000000	          0.00000000	          0.00000000	          0.12277008	          0.00000000	          0.00000000	         -0.00000000	          0.00000000	
          1.20700000	        -12.26712854	        161.01361000	        -18.62363931	         -0.02842073	          0.00000000	         -0.00695984	          0.00000000	          0.00000000	          0.00000000	          0.00000000	          0.00000000	          0.00000000	          0.00000000	          0.13948676	          0.00000000	          0.00000000	         -0.00000000	          0.00000000	
          1.20800000	        -13.77210990	        172.87715003	        -19.81888562	         -0.04597130	          0.00000000	         -0.00911761	          0.00000000	          0.00000000	          0.00000000	          0.00000000	          0.00000000	          0.00000000	          0.00000000	          0.15641414	          0.00000000	          0.00000000	         -0.00000000	          0.00000000	
          1.20900000	        -15.34470134	        185.06134713	        -21.05368501	         -0.06344673	          0.00000000	         -0.01127219	          0.00000000	          0.00000000	          0.00000000	          0.00000000	          0.00000000	          0.00000000	          0.00000000	          0.17351821	          0.00000000	          0.00000000	         -0.00000000	          0.00000000	
          1.21000000	        -16.98505471	        197.54728448	        -22.32636855	         -0.08080378	          0.00000000	         -0.01341833	          0.00000000	          0.00000000	          0.00000000	          0.00000000	          0.00000000	          0.00000000	          0.00000000	          0.19076253	          0.00000000	          0.00000000	         -0.00000000	          0.00000000	
          1.21100000	        -18.69308191	        210.31315484	        -23.63493846	         -0.09799822	          0.00000000	         -0.01555058	          0.00000000	          0.00000000	          0.00000000	          0.00000000	          0.00000000	          0.00000000	          0.00000000	          0.20810793	          0.00000000	          0.00000000	         -0.00000000	          0.00000000	
          1.21200000	        -20.46843319	        223.33408345	        -24.97704558	         -0.11498494	          0.00000000	         -0.01766335	          0.00000000	          0.00000000	          0.00000000	          0.00000000	          0.00000000	          0.00000000	          0.00000000	          0.22551248	          0.00000000	          0.00000000	         -0.00000000	          0.00000000	
          1.21300000	        -22.31048815	        236.58201117	        -26.34995735	         -0.13171931	          0.00000000	         -0.01975101	          0.00000000	          0.00000000	          0.00000000	          0.00000000	          0.00000000	          0.00000000	          0.00000000	          0.24293198	          0.00000000	          0.00000000	         -0.00000000	          0.00000000	
          1.21400000	        -24.21836072	        250.02566349	        -27.75051641	         -0.14815927	          0.00000000	         -0.02180816	         -0.00000000	          0.00000000	          0.00000000	          0.00000000	          0.00000000	          0.00000000	          0.00000000	          0.26032098	          0.00000000	          0.00000000	         -0.00000000	          0.00000000	
          1.21500000	        -26.19090744	        263.63059179	        -29.17509895	         -0.16426681	          0.00000000	         -0.02382981	         -0.00000000	          0.00000000	          0.00000000	          0.00000000	          0.00000000	          0.00000000	          0.00000000	          0.27763365	          0.00000000	          0.00000000	         -0.00000000	          0.00000000	
          1.21600000	        -28.22673476	        277.35930837	        -30.61957808	         -0.18000825	          0.00000000	         -0.02581148	         -0.00000000	          0.00000000	          0.00000000	          0.00000000	          0.00000000	          0.00000000	          0.00000000	          0.29482434	          0.00000000	          0.00000000	         -0.00000000	          0.00000000	
          1.21700000	        -30.32421044	        291.17158475	        -32.07929131	         -0.19535400	          0.00000000	         -0.02774919	         -0.00000000	          0.00000000	          0.00000000	          0.00000000	          0.00000000	          0.00000000	          0.00000000	          0.31184854	          0.00000000	          0.00000000	         -0.00000000	          0.00000000	
          1.21800000	        -32.48148067	        305.02497230	        -33.54901411	         -0.21027848	          0.00000000	         -0.02963952	         -0.00000000	          0.00000000	          0.00000000	          0.00000000	          0.00000000	          0.00000000	          0.00000000	          0.32866418	          0.00000000	          0.00000000	         -0.00000000	          0.00000000	
          1.21900000	        -34.69648863	        318.87556640	        -35.02294542	         -0.22475982	          0.00000000	         -0.03147953	         -0.00000000	          0.00000000	          0.00000000	          0.00000000	          0.00000000	          0.00000000	          0.00000000	          0.34523328	          0.00000000	          0.00000000	          0.00000000	          0.00000000	
          1.22000000	        -36.96698826	        332.67898746	        -36.49471297	         -0.23877966	          0.00000000	         -0.03326681	         -0.00000000	          0.00000000	          0.00000000	          0.00000000	          0.00000000	          0.00000000	          0.00000000	          0.36152328	          0.00000000	          0.00000000	          0.00000000	          0.00000000	
          1.22100000	        -39.29054710	        346.39149633	        -37.95740576	         -0.25232294	          0.00000000	         -0.03499942	         -0.00000000	          0.00000000	          0.00000000	          0.00000000	          0.00000000	          0.00000000	          0.00000000	          0.37750798	          0.00000000	          0.00000000	          0.00000000	          0.00000000	
          1.22200000	        -41.66453520	        359.97112002	        -39.40363869	         -0.26537769	          0.00000000	         -0.03667583	         -0.00000000	          0.00000000	          0.00000000	          0.00000000	          0.00000000	          0.00000000	          0.00000000	          0.39316760	          0.00000000	          0.00000000	          0.00000000	          0.00000000	
          1.22300000	        -44.08610221	        373.37865412	        -40.82564896	         -0.27793475	          0.00000000	         -0.03829494	         -0.00000000	          0.00000000	          0.00000000	          0.00000000	          0.00000000	          0.00000000	          0.00000000	          0.40848817	          0.00000000	          0.00000000	          0.00000000	          0.00000000	
          1.22400000	        -46.55214842	        386.57843350	        -42.21541870	         -0.28998765	          0.00000000	         -0.03985601	         -0.00000000	          0.00000000	          0.00000000	          0.00000000	          0.00000000	          0.00000000	          0.00000000	          0.42346043	          0.00000000	          0.00000000	          0.00000000	          0.00000000	
          1.22500000	        -49.05929723	        399.53881257	        -43.56481420	         -0.30153236	          0.00000000	         -0.04135865	         -0.00000000	          0.00000000	          0.00000000	          0.00000000	          0.00000000	          0.00000000	          0.00000000	          0.43807840	          0.00000000	          0.00000000	          0.00000000	          0.00000000	
          1.22600000	        -51.60387536	        412.23235055	        -44.86573062	         -0.31256709	          0.00000000	         -0.04280277	         -0.00000000	          0.00000000	          0.00000000	          0.00000000	          0.00000000	          0.00000000	          0.00000000	          0.45233792	          0.00000000	          0.00000000	          0.00000000	          0.00000000	
          1.22700000	        -54.18190426	        424.63574168	        -46.11023212	         -0.32309214	          0.00000000	         -0.04418857	         -0.00000000	          0.00000000	          0.00000000	          0.00000000	          0.00000000	          0.00000000	          0.00000000	          0.46623512	          0.00000000	          0.00000000	          0.00000000	          0.00000000	
          1.22800000	        -56.78910350	        436.72955817	        -47.29067949	         -0.33310969	          0.00000000	         -0.04551653	         -0.00000000	          0.00000000	          0.00000000	          0.00000000	          0.00000000	          0.00000000	          0.00000000	          0.47976505	          0.00000000	          0.00000000	          0.00000000	          0.00000000	
          1.22900000	        -59.42090456	        448.49788278	        -48.39984044	         -0.34262366	          0.00000000	         -0.04678733	         -0.00000000	          0.00000000	          0.00000000	          0.00000000	          0.00000000	          0.00000000	          0.00000000	          0.49292036	          0.00000000	          0.00000000	          0.00000000	          0.00000000	
          1.23000000	        -62.07247254	        459.92790253	        -49.43098114	         -0.35163953	          0.00000000	         -0.04800188	         -0.00000000	          0.00000000	          0.00000000	          0.00000000	          0.00000000	          0.00000000	          0.00000000	          0.50568996	          0.00000000	          0.00000000	          0.00000000	          0.00000000	
          1.23100000	        -64.73873399	        471.00951934	        -50.37793964	         -0.36016417	          0.00000000	         -0.04916125	         -0.00000000	          0.00000000	          0.00000000	          0.00000000	          0.00000000	          0.00000000	          0.00000000	          0.51805785	          0.00000000	          0.00000000	          0.00000000	          0.00000000	
          1.23200000	        -67.41440987	        481.73501329	        -51.23518340	         -0.36820574	          0.00000000	         -0.05026668	         -0.00000000	          0.00000000	          0.00000000	          0.00000000	          0.00000000	          0.00000000	          0.00000000	          0.53000204	          0.00000000	          0.00000000	          0.00000000	          0.00000000	
          1.23300000	        -70.09405398	        492.09877575	        -51.99785294	         -0.37577349	          0.00000000	         -0.05131954	         -0.00000000	          0.00000000	          0.00000000	          0.00000000	          0.00000000	          0.00000000	          0.00000000	          0.54149381	          0.00000000	          0.00000000	          0.00000000	          0.00000000	
          1.23400000	        -72.77209733	        502.09711434	        -52.66179330	         -0.38287768	          0.00000000	         -0.05232133	         -0.00000000	          0.00000000	          0.00000000	          0.00000000	          0.00000000	          0.00000000	          0.00000000	          0.55249741	          0.00000000	          0.00000000	          0.00000000	          0.00000000	
          1.23500000	        -75.44289852	        511.72812164	        -53.22357389	         -0.38952942	          0.00000000	         -0.05327365	         -0.00000000	          0.00000000	          0.00000000	          0.00000000	          0.00000000	          0.00000000	          0.00000000	          0.56297016	          0.00000000	          0.00000000	          0.00000000	          0.00000000	
